<svg xmlns="http://www.w3.org/2000/svg" xmlns:xlink="http://www.w3.org/1999/xlink" width="500" zoomAndPan="magnify" viewBox="0 0 375 374.999991" height="500" preserveAspectRatio="xMidYMid meet" version="1.0"><defs><g/></defs><g fill="#000000" fill-opacity="1"><g transform="translate(29.748542, 274.760476)"><g><path d="M 113.847656 0 L 113.847656 -130.460938 L 159.027344 -130.460938 L 159.027344 -186.765625 L 3.160156 -186.765625 L 3.160156 -130.460938 L 48.476562 -130.460938 L 48.476562 0 Z M 113.847656 0 "/></g></g></g><g fill="#e3bac6" fill-opacity="1"><g transform="translate(135.67432, 274.760476)"><g><path d="M 107.664062 4.804688 C 151.886719 4.804688 199.675781 -21.285156 204.894531 -81.4375 L 139.113281 -81.4375 C 135.132812 -62.621094 121.671875 -55.207031 106.429688 -55.207031 C 87.339844 -55.207031 70.585938 -67.976562 70.585938 -93.519531 C 70.585938 -118.652344 87.753906 -131.835938 106.429688 -131.835938 C 121.8125 -131.835938 135.132812 -124.421875 139.390625 -105.605469 L 205.03125 -105.605469 C 199.675781 -166.855469 149.824219 -191.710938 107.664062 -191.710938 C 50.675781 -191.710938 4.53125 -152.296875 4.53125 -93.660156 C 4.53125 -35.15625 50.675781 4.804688 107.664062 4.804688 Z M 107.664062 4.804688 "/></g></g></g></svg>